<svg version="1.1" id="Layer_1" xmlns="http://www.w3.org/2000/svg" xmlns:xlink="http://www.w3.org/1999/xlink" x="0px" y="0px"
	 width="100%" viewBox="0 0 500 500" enable-background="new 0 0 500 500" xml:space="preserve">
<path fill="#FFFFFF" opacity="1.000000" stroke="none" 
	d="
M283.000000,501.000000 
	C188.666687,501.000000 94.833382,501.000000 1.000050,501.000000 
	C1.000034,334.333405 1.000034,167.666794 1.000017,1.000140 
	C167.666565,1.000093 334.333130,1.000093 500.999756,1.000047 
	C500.999847,167.666519 500.999847,334.333038 500.999939,500.999786 
	C428.500000,501.000000 356.000000,501.000000 283.000000,501.000000 
M273.765350,461.966431 
	C276.235657,467.681671 280.953064,465.913727 285.641357,465.724518 
	C285.099854,461.455048 287.807983,456.409393 282.077026,454.414185 
	C280.304840,453.797211 277.824921,455.213104 275.669037,455.698212 
	C275.794189,456.168488 275.919312,456.638733 276.044464,457.109009 
	C278.000275,457.233582 279.956085,457.358185 282.239838,457.503662 
	C278.685516,459.260468 275.837738,460.668091 273.138489,461.140656 
	C272.726959,454.364136 272.043549,453.981476 261.330322,454.877289 
	C261.330322,459.271179 261.264130,463.727570 261.393311,468.178284 
	C261.415710,468.950500 262.264313,469.698730 262.731293,470.458038 
	C263.410919,469.742493 264.242249,469.114258 264.720734,468.282959 
	C265.084656,467.650696 265.000244,466.760345 265.129456,465.889374 
	C268.698975,466.375885 271.869720,466.540833 273.765350,461.966431 
M103.048927,279.638214 
	C102.956818,281.134735 102.875092,282.631989 102.771103,284.127686 
	C99.157906,336.094055 117.700027,379.042694 158.757339,410.384766 
	C201.707169,443.171600 249.865402,448.849701 300.305756,428.946503 
	C352.144318,408.491638 388.081696,355.584717 389.022308,299.848114 
	C389.568481,267.484283 380.272400,238.289413 361.914215,211.720337 
	C325.870819,159.556076 290.012054,107.264259 254.068268,55.031151 
	C251.318558,51.035290 248.500931,47.086136 245.559601,42.893978 
	C244.767517,43.974400 244.361755,44.498711 243.986420,45.043961 
	C207.089920,98.641800 170.441696,152.413010 133.183823,205.758423 
	C117.652596,227.995850 106.525719,251.686539 103.048927,279.638214 
M249.418777,450.609100 
	C241.135254,460.067474 254.303940,457.620270 256.180389,463.071014 
	C253.445755,462.657043 251.431747,462.293060 249.402008,462.077240 
	C248.700043,462.002625 247.834000,462.113739 247.283142,462.490875 
	C246.959671,462.712372 246.975708,464.129028 247.065338,464.152771 
	C249.684372,464.845673 252.389099,466.042847 254.953522,465.803436 
	C256.491852,465.659790 258.961182,463.234894 258.948120,461.854797 
	C258.932068,460.160339 257.000549,458.206757 255.451950,456.887756 
	C254.100647,455.736755 252.131805,455.310730 250.435806,454.564392 
	C250.604065,454.014435 250.772324,453.464508 250.940582,452.914551 
	C253.495682,452.914551 256.050781,452.914551 258.605896,452.914551 
	C258.586304,452.185028 258.566681,451.455505 258.547089,450.726013 
	C255.744781,450.552246 252.942490,450.378479 249.418777,450.609100 
M243.548218,455.411743 
	C242.512650,454.980835 241.471085,454.169037 240.442551,454.185272 
	C236.102158,454.253632 231.765640,454.568787 227.116135,454.809814 
	C227.116135,458.291687 227.116135,462.021301 227.116135,467.428558 
	C228.650543,465.545776 229.610764,464.855621 229.832550,463.978729 
	C230.149246,462.726471 229.666458,461.265442 230.010651,460.028717 
	C230.307648,458.961487 231.282898,458.083069 231.958267,457.121155 
	C232.615860,458.059418 233.606339,458.919342 233.850098,459.954956 
	C234.184433,461.375519 233.706299,462.991882 234.063858,464.400574 
	C234.250977,465.137787 235.479416,465.610748 236.613861,466.496979 
	C237.420624,457.869812 237.420624,457.869812 241.037491,457.362427 
	C241.037491,459.223816 240.860062,461.033844 241.100464,462.786591 
	C241.258133,463.936127 242.019867,465.002777 242.511063,466.106567 
	C242.982925,465.923737 243.454773,465.740936 243.926636,465.558105 
	C243.926636,462.434845 243.926636,459.311554 243.548218,455.411743 
M192.832596,463.797241 
	C198.103165,467.421936 201.460464,467.128601 206.280212,461.453827 
	C203.763016,461.951996 202.477493,462.509003 201.265961,462.378632 
	C199.193832,462.155579 196.459106,462.124298 195.334579,460.843262 
	C194.334457,459.703918 194.349548,456.271790 195.359680,455.142670 
	C196.489883,453.879364 199.227081,453.904358 201.298279,453.689056 
	C202.511459,453.562958 203.789597,454.061768 206.278656,454.495636 
	C201.921921,449.477448 197.526596,448.701324 193.932220,451.267883 
	C190.281311,453.874817 189.714005,458.075348 192.832596,463.797241 
M209.389664,454.761902 
	C208.851089,455.481903 208.312531,456.201874 207.250320,457.621887 
	C210.179474,457.621887 212.048019,457.621887 213.916565,457.621887 
	C211.263504,459.438354 205.985840,457.698120 207.070618,462.842682 
	C208.446899,469.369720 213.885468,464.327179 217.221924,466.011627 
	C218.476715,455.751556 217.102081,453.653198 209.389664,454.761902 
M305.701202,466.166351 
	C307.250702,465.685089 308.800171,465.203857 310.349670,464.722595 
	C310.202484,464.366974 310.055298,464.011353 309.908112,463.655731 
	C307.857239,463.354736 305.806366,463.053741 303.755493,462.752747 
	C303.814362,462.302826 303.873230,461.852875 303.932068,461.402954 
	C306.369812,461.246307 308.807526,461.089661 311.460327,460.919220 
	C311.417419,457.054657 309.819672,454.075287 306.188416,454.369720 
	C304.014313,454.545990 300.986633,456.841919 300.218079,458.889191 
	C298.901672,462.395630 300.766876,465.310883 305.701202,466.166351 
M292.785583,466.083710 
	C294.569702,465.699829 296.353851,465.315948 298.137970,464.932037 
	C295.526703,462.999634 291.881500,462.558167 291.427551,461.113770 
	C289.505737,454.998505 296.681793,459.040741 298.325562,455.868347 
	C294.682281,453.208405 291.576050,453.482361 288.981384,456.653351 
	C286.484650,459.704712 287.733124,463.239288 292.785583,466.083710 
M221.460007,450.130768 
	C221.244675,453.223267 220.790802,456.323822 220.894577,459.405579 
	C220.968658,461.605988 221.791489,463.781189 222.280212,465.967621 
	C222.828659,463.826233 223.863022,461.673126 223.811569,459.546234 
	C223.734512,456.361176 222.894531,453.194550 221.460007,450.130768 
z"/>
<path fill="#4D1ABA" opacity="1.000000" stroke="none" 
	d="
M103.090546,279.191772 
	C106.525719,251.686539 117.652596,227.995850 133.183823,205.758423 
	C170.441696,152.413010 207.089920,98.641800 243.986420,45.043961 
	C244.361755,44.498711 244.767517,43.974400 245.559601,42.893978 
	C248.500931,47.086136 251.318558,51.035290 254.068268,55.031151 
	C290.012054,107.264259 325.870819,159.556076 361.914215,211.720337 
	C380.272400,238.289413 389.568481,267.484283 389.022308,299.848114 
	C388.081696,355.584717 352.144318,408.491638 300.305756,428.946503 
	C249.865402,448.849701 201.707169,443.171600 158.757339,410.384766 
	C117.700027,379.042694 99.157906,336.094055 102.771103,284.127686 
	C102.875092,282.631989 102.956818,281.134735 103.090546,279.191772 
M174.918137,382.601624 
	C225.652985,418.870697 293.801666,412.287292 335.755188,367.064270 
	C374.949097,324.815857 379.366730,262.223663 346.389587,214.211273 
	C317.544922,172.215454 288.546173,130.325424 259.620392,88.385277 
	C255.384872,82.244095 251.176514,76.084167 246.818726,69.733459 
	C246.064041,70.596931 245.586441,71.045723 245.222946,71.573158 
	C212.153656,119.554207 178.715515,167.286591 146.131805,215.595276 
	C109.066772,270.548004 121.813507,343.829224 174.918137,382.601624 
z"/>
<path fill="#673BC4" opacity="1.000000" stroke="none" 
	d="
M272.905243,462.364349 
	C271.869720,466.540833 268.698975,466.375885 265.129456,465.889374 
	C265.000244,466.760345 265.084656,467.650696 264.720734,468.282959 
	C264.242249,469.114258 263.410919,469.742493 262.731293,470.458038 
	C262.264313,469.698730 261.415710,468.950500 261.393311,468.178284 
	C261.264130,463.727570 261.330322,459.271179 261.330322,454.877289 
	C272.043549,453.981476 272.726959,454.364136 273.089294,461.615173 
	C273.040100,462.089691 272.905243,462.364349 272.905243,462.364349 
M264.829376,458.882233 
	C265.666931,460.328186 266.504517,461.774139 267.342102,463.220093 
	C268.162445,461.862579 269.859589,460.322937 269.623260,459.184875 
	C269.107910,456.703369 267.177704,456.327057 264.829376,458.882233 
z"/>
<path fill="#5829BE" opacity="1.000000" stroke="none" 
	d="
M249.779480,450.406921 
	C252.942490,450.378479 255.744781,450.552246 258.547089,450.726013 
	C258.566681,451.455505 258.586304,452.185028 258.605896,452.914551 
	C256.050781,452.914551 253.495682,452.914551 250.940582,452.914551 
	C250.772324,453.464508 250.604065,454.014435 250.435806,454.564392 
	C252.131805,455.310730 254.100647,455.736755 255.451950,456.887756 
	C257.000549,458.206757 258.932068,460.160339 258.948120,461.854797 
	C258.961182,463.234894 256.491852,465.659790 254.953522,465.803436 
	C252.389099,466.042847 249.684372,464.845673 247.065338,464.152771 
	C246.975708,464.129028 246.959671,462.712372 247.283142,462.490875 
	C247.834000,462.113739 248.700043,462.002625 249.402008,462.077240 
	C251.431747,462.293060 253.445755,462.657043 256.180389,463.071014 
	C254.303940,457.620270 241.135254,460.067474 249.779480,450.406921 
z"/>
<path fill="#5626BD" opacity="1.000000" stroke="none" 
	d="
M243.737427,455.800018 
	C243.926636,459.311554 243.926636,462.434845 243.926636,465.558105 
	C243.454773,465.740936 242.982925,465.923737 242.511063,466.106567 
	C242.019867,465.002777 241.258133,463.936127 241.100464,462.786591 
	C240.860062,461.033844 241.037491,459.223816 241.037491,457.362427 
	C237.420624,457.869812 237.420624,457.869812 236.613861,466.496979 
	C235.479416,465.610748 234.250977,465.137787 234.063858,464.400574 
	C233.706299,462.991882 234.184433,461.375519 233.850098,459.954956 
	C233.606339,458.919342 232.615860,458.059418 231.958282,457.121155 
	C231.282898,458.083069 230.307648,458.961487 230.010651,460.028717 
	C229.666458,461.265442 230.149246,462.726471 229.832550,463.978729 
	C229.610764,464.855621 228.650543,465.545776 227.116135,467.428558 
	C227.116135,462.021301 227.116135,458.291687 227.116135,454.809814 
	C231.765640,454.568787 236.102158,454.253632 240.442551,454.185272 
	C241.471085,454.169037 242.512650,454.980835 243.737427,455.800018 
z"/>
<path fill="#5829BE" opacity="1.000000" stroke="none" 
	d="
M192.574585,463.513977 
	C189.714005,458.075348 190.281311,453.874817 193.932220,451.267883 
	C197.526596,448.701324 201.921921,449.477448 206.278656,454.495636 
	C203.789597,454.061768 202.511459,453.562958 201.298279,453.689056 
	C199.227081,453.904358 196.489883,453.879364 195.359680,455.142670 
	C194.349548,456.271790 194.334457,459.703918 195.334579,460.843262 
	C196.459106,462.124298 199.193832,462.155579 201.265961,462.378632 
	C202.477493,462.509003 203.763016,461.951996 206.280212,461.453827 
	C201.460464,467.128601 198.103165,467.421936 192.574585,463.513977 
z"/>
<path fill="#6337C2" opacity="1.000000" stroke="none" 
	d="
M273.335297,462.165405 
	C272.905243,462.364349 273.040100,462.089691 273.015015,462.082703 
	C275.837738,460.668091 278.685516,459.260468 282.239838,457.503662 
	C279.956085,457.358185 278.000275,457.233582 276.044464,457.109009 
	C275.919312,456.638733 275.794189,456.168488 275.669037,455.698212 
	C277.824921,455.213104 280.304840,453.797211 282.077026,454.414185 
	C287.807983,456.409393 285.099854,461.455048 285.641357,465.724518 
	C280.953064,465.913727 276.235657,467.681671 273.335297,462.165405 
z"/>
<path fill="#6337C2" opacity="1.000000" stroke="none" 
	d="
M209.754608,454.610535 
	C217.102081,453.653198 218.476715,455.751556 217.221924,466.011627 
	C213.885468,464.327179 208.446899,469.369720 207.070618,462.842682 
	C205.985840,457.698120 211.263504,459.438354 213.916565,457.621887 
	C212.048019,457.621887 210.179474,457.621887 207.250320,457.621887 
	C208.312531,456.201874 208.851089,455.481903 209.754608,454.610535 
z"/>
<path fill="#5D2FC0" opacity="1.000000" stroke="none" 
	d="
M305.278931,466.130798 
	C300.766876,465.310883 298.901672,462.395630 300.218079,458.889191 
	C300.986633,456.841919 304.014313,454.545990 306.188416,454.369720 
	C309.819672,454.075287 311.417419,457.054657 311.460327,460.919220 
	C308.807526,461.089661 306.369812,461.246307 303.932068,461.402954 
	C303.873230,461.852875 303.814362,462.302826 303.755493,462.752747 
	C305.806366,463.053741 307.857239,463.354736 309.908112,463.655731 
	C310.055298,464.011353 310.202484,464.366974 310.349670,464.722595 
	C308.800171,465.203857 307.250702,465.685089 305.278931,466.130798 
z"/>
<path fill="#5A2CBF" opacity="1.000000" stroke="none" 
	d="
M292.373779,466.026642 
	C287.733124,463.239288 286.484650,459.704712 288.981384,456.653351 
	C291.576050,453.482361 294.682281,453.208405 298.325562,455.868347 
	C296.681793,459.040741 289.505737,454.998505 291.427551,461.113770 
	C291.881500,462.558167 295.526703,462.999634 298.137970,464.932037 
	C296.353851,465.315948 294.569702,465.699829 292.373779,466.026642 
z"/>
<path fill="#5626BD" opacity="1.000000" stroke="none" 
	d="
M221.919525,450.075439 
	C222.894531,453.194550 223.734512,456.361176 223.811569,459.546234 
	C223.863022,461.673126 222.828659,463.826233 222.280212,465.967621 
	C221.791489,463.781189 220.968658,461.605988 220.894577,459.405579 
	C220.790802,456.323822 221.244675,453.223267 221.919525,450.075439 
z"/>
<path fill="#FCFBFE" opacity="1.000000" stroke="none" 
	d="
M174.633301,382.381836 
	C121.813507,343.829224 109.066772,270.548004 146.131805,215.595276 
	C178.715515,167.286591 212.153656,119.554207 245.222946,71.573158 
	C245.586441,71.045723 246.064041,70.596931 246.818726,69.733459 
	C251.176514,76.084167 255.384872,82.244095 259.620392,88.385277 
	C288.546173,130.325424 317.544922,172.215454 346.389587,214.211273 
	C379.366730,262.223663 374.949097,324.815857 335.755188,367.064270 
	C293.801666,412.287292 225.652985,418.870697 174.633301,382.381836 
M289.518341,152.003891 
	C275.483337,131.674896 261.448334,111.345886 246.920547,90.303131 
	C246.360458,91.372772 246.173874,91.841125 245.894958,92.245880 
	C215.879120,135.803528 185.665482,179.226746 155.941544,222.982635 
	C146.053238,237.538956 141.160034,254.246902 140.154282,271.795868 
	C138.050903,308.495758 151.264175,338.831116 179.287643,362.593781 
	C220.695908,397.706146 286.961151,393.773407 323.928070,354.123016 
	C360.447906,314.952118 364.489471,260.878632 334.142334,216.674164 
	C319.455139,195.280365 304.672516,173.952072 289.518341,152.003891 
z"/>
<path fill="#F7F5FC" opacity="1.000000" stroke="none" 
	d="
M264.987427,458.487183 
	C267.177704,456.327057 269.107910,456.703369 269.623260,459.184875 
	C269.859589,460.322937 268.162445,461.862579 267.342102,463.220093 
	C266.504517,461.774139 265.666931,460.328186 264.987427,458.487183 
z"/>
<path fill="#042392" opacity="1.000000" stroke="none" 
	d="
M289.725708,152.299011 
	C304.672516,173.952072 319.455139,195.280365 334.142334,216.674164 
	C364.489471,260.878632 360.447906,314.952118 323.928070,354.123016 
	C286.961151,393.773407 220.695908,397.706146 179.287643,362.593781 
	C151.264175,338.831116 138.050903,308.495758 140.154282,271.795868 
	C141.160034,254.246902 146.053238,237.538956 155.941544,222.982635 
	C185.665482,179.226746 215.879120,135.803528 245.894958,92.245880 
	C246.173874,91.841125 246.360458,91.372772 246.920547,90.303131 
	C261.448334,111.345886 275.483337,131.674896 289.725708,152.299011 
M291.703918,359.951294 
	C320.150635,340.257477 328.941406,298.468903 310.690033,267.113525 
	C304.181427,255.931808 296.362793,245.505768 289.026184,234.814346 
	C275.591431,215.236252 262.070465,195.717346 248.460526,175.992676 
	C247.764023,176.849899 247.200623,177.454620 246.736267,178.127655 
	C227.464325,206.059891 207.791321,233.726929 189.063141,262.019348 
	C173.300400,285.831909 171.505936,311.440247 185.036057,336.748962 
	C198.777802,362.453583 221.200073,375.039337 250.397751,374.759247 
	C265.013306,374.619019 278.474640,370.389435 290.550690,360.932587 
	C290.704651,360.626923 290.858582,360.321259 291.703918,359.951294 
z"/>
<path fill="#FDFDFE" opacity="1.000000" stroke="none" 
	d="
M290.016815,361.012787 
	C278.474640,370.389435 265.013306,374.619019 250.397751,374.759247 
	C221.200073,375.039337 198.777802,362.453583 185.036057,336.748962 
	C171.505936,311.440247 173.300400,285.831909 189.063141,262.019348 
	C207.791321,233.726929 227.464325,206.059891 246.736267,178.127655 
	C247.200623,177.454620 247.764023,176.849899 248.460526,175.992676 
	C262.070465,195.717346 275.591431,215.236252 289.026184,234.814346 
	C296.362793,245.505768 304.181427,255.931808 310.690033,267.113525 
	C328.941406,298.468903 320.150635,340.257477 291.367279,359.987671 
	C291.030640,360.024048 291.051270,360.042053 290.847412,359.712036 
	C292.451660,355.252319 290.976440,352.026611 287.441315,349.060303 
	C288.799286,348.951813 290.058929,349.232880 290.666626,348.728485 
	C292.258850,347.406830 293.566620,345.742432 294.987732,344.214600 
	C293.452362,342.810699 291.996399,341.300201 290.336487,340.063446 
	C289.791534,339.657440 288.702515,339.849762 287.888245,339.960022 
	C284.482880,340.421082 282.458771,339.014313 280.862427,335.928467 
	C278.193726,330.769714 275.232269,325.731659 271.983032,320.920380 
	C270.825104,319.205841 268.525726,317.291138 266.655701,317.191620 
	C257.066284,316.681458 247.447052,316.638794 237.838150,316.634186 
	C233.870560,316.632294 231.131851,318.623535 229.300354,322.371765 
	C227.117844,326.838440 224.166473,330.924438 221.879852,335.346893 
	C220.176880,338.640533 218.123856,340.493652 214.139420,340.025787 
	C211.572006,339.724335 208.557510,339.535522 207.796249,343.199799 
	C206.995239,347.055420 209.329819,348.585693 211.398514,348.947906 
	C210.729507,352.033203 208.972214,355.317596 209.830948,357.630859 
	C210.581131,359.651703 214.127304,361.356750 216.697311,361.849304 
	C225.668732,363.568573 234.763916,364.633423 243.779907,366.139435 
	C244.980545,366.339996 246.512238,367.411530 247.005905,368.486176 
	C248.908737,372.628052 251.923233,372.910156 255.691177,371.661621 
	C264.831299,368.632904 273.974609,365.612488 283.145172,362.677856 
	C285.387604,361.960266 287.739716,361.585266 290.032471,361.042297 
	C290.023560,361.031860 290.016815,361.012787 290.016815,361.012787 
M259.814270,235.811386 
	C258.689240,240.687317 257.564209,245.563248 256.439209,250.439178 
	C257.017456,250.790344 257.595703,251.141510 258.173950,251.492676 
	C262.366577,247.388596 266.876709,243.543060 270.557922,239.022522 
	C271.659302,237.670029 271.290283,233.803864 270.099548,232.198364 
	C268.132874,229.546677 265.186432,230.270386 262.755188,232.570923 
	C261.645477,233.620956 260.239899,234.358261 258.988922,234.340530 
	C259.171783,226.809967 256.976410,222.941574 251.735535,223.195038 
	C248.977936,223.328400 245.403137,224.797562 243.869690,226.889450 
	C242.331543,228.987778 242.872955,232.610504 242.441193,236.058334 
	C241.474014,234.802612 240.772293,233.924393 240.105896,233.020172 
	C238.066223,230.252502 235.623688,229.869507 232.764618,231.721985 
	C229.729034,233.688858 229.343445,236.392578 231.571350,238.905273 
	C235.459106,243.289948 239.725433,247.338928 243.833084,251.528610 
	C244.340179,251.197205 244.847275,250.865799 245.354370,250.534393 
	C244.772217,246.743317 244.190079,242.952240 243.607941,239.161179 
	C243.937531,238.961029 244.267120,238.760895 244.596710,238.560760 
	C246.667435,242.361374 248.738144,246.161987 250.819031,249.981232 
	C253.600403,244.935303 256.298492,240.040482 259.814270,235.811386 
M241.148682,305.864990 
	C244.110916,311.860718 247.844025,314.131104 253.218903,312.895050 
	C257.701324,311.864197 260.444305,308.945618 260.993469,304.336548 
	C261.684845,298.533783 257.711060,294.041077 251.843552,293.742706 
	C244.488815,293.368652 240.892639,297.134247 241.148682,305.864990 
z"/>
<path fill="#FDFDFE" opacity="1.000000" stroke="none" 
	d="
M291.021606,360.019836 
	C290.858582,360.321259 290.704651,360.626923 290.283752,360.972687 
	C290.016815,361.012787 290.023560,361.031860 289.859192,360.678986 
	C290.146942,360.231415 290.599121,360.136749 291.051270,360.042053 
	C291.051270,360.042053 291.030640,360.024048 291.021606,360.019836 
z"/>
<path fill="#4E1CBA" opacity="1.000000" stroke="none" 
	d="
M290.847412,359.712036 
	C290.599121,360.136749 290.146942,360.231415 289.868103,360.689453 
	C287.739716,361.585266 285.387604,361.960266 283.145172,362.677856 
	C273.974609,365.612488 264.831299,368.632904 255.691177,371.661621 
	C251.923233,372.910156 248.908737,372.628052 247.005905,368.486176 
	C246.512238,367.411530 244.980545,366.339996 243.779907,366.139435 
	C234.763916,364.633423 225.668732,363.568573 216.697311,361.849304 
	C214.127304,361.356750 210.581131,359.651703 209.830948,357.630859 
	C208.972214,355.317596 210.729507,352.033203 211.398514,348.947906 
	C209.329819,348.585693 206.995239,347.055420 207.796249,343.199799 
	C208.557510,339.535522 211.572006,339.724335 214.139420,340.025787 
	C218.123856,340.493652 220.176880,338.640533 221.879852,335.346893 
	C224.166473,330.924438 227.117844,326.838440 229.300354,322.371765 
	C231.131851,318.623535 233.870560,316.632294 237.838150,316.634186 
	C247.447052,316.638794 257.066284,316.681458 266.655701,317.191620 
	C268.525726,317.291138 270.825104,319.205841 271.983032,320.920380 
	C275.232269,325.731659 278.193726,330.769714 280.862427,335.928467 
	C282.458771,339.014313 284.482880,340.421082 287.888245,339.960022 
	C288.702515,339.849762 289.791534,339.657440 290.336487,340.063446 
	C291.996399,341.300201 293.452362,342.810699 294.987732,344.214600 
	C293.566620,345.742432 292.258850,347.406830 290.666626,348.728485 
	C290.058929,349.232880 288.799286,348.951813 287.441315,349.060303 
	C290.976440,352.026611 292.451660,355.252319 290.847412,359.712036 
M280.135620,350.792480 
	C281.246033,350.372955 282.356476,349.953461 283.802979,349.406982 
	C272.420807,347.305756 272.813599,335.444183 265.836151,329.260559 
	C265.286682,337.968781 264.758636,346.337158 264.185760,355.416016 
	C269.627502,353.828461 274.507416,352.404785 280.135620,350.792480 
M236.842972,338.704712 
	C236.589371,335.930695 236.335770,333.156677 236.062851,330.171265 
	C228.973877,336.165009 229.697327,349.146027 217.366913,349.651581 
	C223.987122,350.531921 230.607330,351.412231 237.464432,352.324066 
	C237.247604,347.533478 237.068649,343.579926 236.842972,338.704712 
z"/>
<path fill="#4F1DBB" opacity="1.000000" stroke="none" 
	d="
M258.996552,235.145660 
	C256.298492,240.040482 253.600403,244.935303 250.819031,249.981232 
	C248.738144,246.161987 246.667435,242.361374 244.596710,238.560760 
	C244.267120,238.760895 243.937531,238.961029 243.607941,239.161179 
	C244.190079,242.952240 244.772217,246.743317 245.354370,250.534393 
	C244.847275,250.865799 244.340179,251.197205 243.833084,251.528610 
	C239.725433,247.338928 235.459106,243.289948 231.571350,238.905273 
	C229.343445,236.392578 229.729034,233.688858 232.764618,231.721985 
	C235.623688,229.869507 238.066223,230.252502 240.105896,233.020172 
	C240.772293,233.924393 241.474014,234.802612 242.441193,236.058334 
	C242.872955,232.610504 242.331543,228.987778 243.869690,226.889450 
	C245.403137,224.797562 248.977936,223.328400 251.735535,223.195038 
	C256.976410,222.941574 259.171783,226.809967 259.002899,234.773346 
	C259.016876,235.206177 258.996552,235.145660 258.996552,235.145660 
M243.375824,237.524261 
	C243.161713,237.469452 242.947601,237.414627 242.733490,237.359802 
	C242.871140,237.494843 243.008804,237.629898 243.375824,237.524261 
z"/>
<path fill="#4E1CBA" opacity="1.000000" stroke="none" 
	d="
M241.086487,305.468323 
	C240.892639,297.134247 244.488815,293.368652 251.843552,293.742706 
	C257.711060,294.041077 261.684845,298.533783 260.993469,304.336548 
	C260.444305,308.945618 257.701324,311.864197 253.218903,312.895050 
	C247.844025,314.131104 244.110916,311.860718 241.086487,305.468323 
z"/>
<path fill="#5120BB" opacity="1.000000" stroke="none" 
	d="
M259.405396,235.478516 
	C258.996552,235.145660 259.016876,235.206177 258.992676,235.221802 
	C260.239899,234.358261 261.645477,233.620956 262.755188,232.570923 
	C265.186432,230.270386 268.132874,229.546677 270.099548,232.198364 
	C271.290283,233.803864 271.659302,237.670029 270.557922,239.022522 
	C266.876709,243.543060 262.366577,247.388596 258.173950,251.492676 
	C257.595703,251.141510 257.017456,250.790344 256.439209,250.439178 
	C257.564209,245.563248 258.689240,240.687317 259.405396,235.478516 
z"/>
<path fill="#F7F4FC" opacity="1.000000" stroke="none" 
	d="
M279.761475,350.886810 
	C274.507416,352.404785 269.627502,353.828461 264.185760,355.416016 
	C264.758636,346.337158 265.286682,337.968781 265.836151,329.260559 
	C272.813599,335.444183 272.420807,347.305756 283.802979,349.406982 
	C282.356476,349.953461 281.246033,350.372955 279.761475,350.886810 
z"/>
<path fill="#F7F4FC" opacity="1.000000" stroke="none" 
	d="
M236.866333,339.165527 
	C237.068649,343.579926 237.247604,347.533478 237.464432,352.324066 
	C230.607330,351.412231 223.987122,350.531921 217.366913,349.651581 
	C229.697327,349.146027 228.973877,336.165009 236.062851,330.171265 
	C236.335770,333.156677 236.589371,335.930695 236.866333,339.165527 
z"/>
<path fill="#511FBB" opacity="1.000000" stroke="none" 
	d="
M243.261139,237.644592 
	C243.008804,237.629898 242.871140,237.494843 242.733490,237.359802 
	C242.947601,237.414627 243.161713,237.469452 243.261139,237.644592 
z"/>
</svg>