<svg version="1.1" id="Layer_1" xmlns="http://www.w3.org/2000/svg" xmlns:xlink="http://www.w3.org/1999/xlink" x="0px" y="0px"
	 width="100%" viewBox="0 0 729 729" enable-background="new 0 0 729 729" xml:space="preserve">
<path fill="#000000" opacity="1.000000" stroke="none" 
	d="
M730.000000,287.000000 
	C730.000000,435.000000 730.000000,582.500000 730.000000,730.000000 
	C487.000000,730.000000 244.000000,730.000000 1.000000,730.000000 
	C1.000000,487.000000 1.000000,244.000000 1.000000,1.000000 
	C244.000000,1.000000 487.000000,1.000000 730.000000,1.000000 
	C730.000000,96.166664 730.000000,191.333328 730.000000,287.000000 
M364.986816,47.298267 
	C361.855988,47.531635 358.714600,47.669750 355.596039,48.014042 
	C337.187225,50.046383 318.463165,50.620239 300.434875,54.456261 
	C229.197006,69.614128 169.502548,104.974922 122.753136,160.955231 
	C67.220619,227.452911 42.847252,304.273834 48.922150,390.782990 
	C50.248955,409.677216 53.286968,428.231750 58.069435,446.502899 
	C65.447571,474.690704 76.140480,501.536987 91.629616,527.137878 
	C111.692192,562.025085 137.698151,591.875000 169.444443,616.439453 
	C230.204773,663.454224 298.974121,686.774353 376.070160,683.888245 
	C390.419159,683.351135 404.803467,681.957153 419.013977,679.880615 
	C452.603973,674.972168 484.255768,663.871582 514.279602,648.125793 
	C553.684448,627.460266 587.459717,599.788696 614.957520,564.871704 
	C625.384766,551.631165 633.901489,536.885986 643.827515,522.515686 
	C669.097290,477.589935 682.556213,429.251831 684.624023,377.863434 
	C685.195679,363.656982 683.822632,349.350433 682.956848,335.113190 
	C681.687134,314.232361 677.261963,293.898132 671.186768,273.936310 
	C654.894592,220.403580 626.537109,174.280609 586.062561,135.581787 
	C551.909912,102.927513 512.461548,79.081612 467.714355,64.024361 
	C447.143677,57.102413 426.138153,51.903053 404.453339,50.031433 
	C391.602051,48.922237 378.708984,48.297344 364.986816,47.298267 
z"/>
<path fill="#F9BD15" opacity="1.000000" stroke="none" 
	d="
M643.289062,522.826660 
	C633.901489,536.885986 625.384766,551.631165 614.957520,564.871704 
	C587.459717,599.788696 553.684448,627.460266 514.279602,648.125793 
	C484.255768,663.871582 452.603973,674.972168 419.013977,679.880615 
	C404.803467,681.957153 390.419159,683.351135 376.070160,683.888245 
	C298.974121,686.774353 230.204773,663.454224 169.444443,616.439453 
	C137.698151,591.875000 111.692192,562.025085 91.858826,526.651672 
	C101.479713,520.723633 110.871391,515.281860 120.524124,510.049316 
	C132.455215,529.776123 145.885040,548.021606 162.166641,563.893005 
	C239.152557,638.938965 330.467926,664.727356 435.065643,640.739441 
	C488.447021,628.497192 533.661804,600.792725 571.625427,561.270203 
	C587.972717,544.251587 601.588806,525.243103 613.915039,505.303467 
	C623.874329,511.309570 633.581665,517.068115 643.289062,522.826660 
z"/>
<path fill="#ED4D2F" opacity="1.000000" stroke="none" 
	d="
M643.558289,522.671143 
	C633.581665,517.068115 623.874329,511.309570 614.035034,504.941925 
	C661.715271,413.770844 663.802429,322.182587 616.600403,231.262421 
	C581.190491,163.056137 525.054504,117.720581 451.953613,93.637810 
	C424.040436,84.441933 395.239899,80.813553 366.000000,79.477112 
	C365.944763,68.492775 365.889740,57.973728 365.834686,47.454685 
	C378.708984,48.297344 391.602051,48.922237 404.453339,50.031433 
	C426.138153,51.903053 447.143677,57.102413 467.714355,64.024361 
	C512.461548,79.081612 551.909912,102.927513 586.062561,135.581787 
	C626.537109,174.280609 654.894592,220.403580 671.186768,273.936310 
	C677.261963,293.898132 681.687134,314.232361 682.956848,335.113190 
	C683.822632,349.350433 685.195679,363.656982 684.624023,377.863434 
	C682.556213,429.251831 669.097290,477.589935 643.558289,522.671143 
z"/>
<path fill="#04A696" opacity="1.000000" stroke="none" 
	d="
M365.410767,47.376476 
	C365.889740,57.973728 365.944763,68.492775 365.560944,79.568771 
	C353.833679,80.833237 342.465759,80.918877 331.269897,82.350204 
	C263.597626,91.001701 205.168762,119.151443 159.062454,169.486053 
	C85.332764,249.977325 64.472054,343.773529 93.598663,448.761780 
	C99.582108,470.329376 109.423843,490.331360 120.263077,509.840057 
	C110.871391,515.281860 101.479713,520.723633 91.712021,526.328613 
	C76.140480,501.536987 65.447571,474.690704 58.069435,446.502899 
	C53.286968,428.231750 50.248955,409.677216 48.922150,390.782990 
	C42.847252,304.273834 67.220619,227.452911 122.753136,160.955231 
	C169.502548,104.974922 229.197006,69.614128 300.434875,54.456261 
	C318.463165,50.620239 337.187225,50.046383 355.596039,48.014042 
	C358.714600,47.669750 361.855988,47.531635 365.410767,47.376476 
z"/>
<path fill="#FFFFFF" opacity="1.000000" stroke="none" 
	d="
M120.524124,510.049316 
	C109.423843,490.331360 99.582108,470.329376 93.598663,448.761780 
	C64.472054,343.773529 85.332764,249.977325 159.062454,169.486053 
	C205.168762,119.151443 263.597626,91.001701 331.269897,82.350204 
	C342.465759,80.918877 353.833679,80.833237 365.561096,80.034058 
	C395.239899,80.813553 424.040436,84.441933 451.953613,93.637810 
	C525.054504,117.720581 581.190491,163.056137 616.600403,231.262421 
	C663.802429,322.182587 661.715271,413.770844 613.783203,504.694397 
	C601.588806,525.243103 587.972717,544.251587 571.625427,561.270203 
	C533.661804,600.792725 488.447021,628.497192 435.065643,640.739441 
	C330.467926,664.727356 239.152557,638.938965 162.166641,563.893005 
	C145.885040,548.021606 132.455215,529.776123 120.524124,510.049316 
M363.259521,324.641846 
	C363.800629,325.479340 364.361725,326.304657 364.880005,327.156036 
	C405.077759,393.190796 445.260345,459.234802 485.503632,525.241760 
	C487.390961,528.337463 489.431305,531.522339 492.061371,533.949463 
	C501.035950,542.231567 514.747803,542.476868 524.097168,534.893188 
	C533.720581,527.087280 535.927856,513.604004 529.176392,502.479462 
	C506.835815,465.668915 484.419098,428.904572 462.031158,392.122742 
	C436.012512,349.375977 409.976349,306.639862 383.994598,263.870697 
	C380.480316,258.085754 375.835205,253.859741 369.264893,251.928009 
	C355.641327,247.922577 343.967072,254.569550 337.073212,270.035370 
	C336.464111,270.810852 335.768005,271.533295 335.258362,272.369415 
	C303.795105,323.987427 272.336304,375.608185 240.902222,427.243988 
	C225.401627,452.706360 209.779724,478.097198 194.536804,503.713287 
	C184.912079,519.888000 196.676437,539.929260 215.408401,540.135010 
	C226.615082,540.258057 233.449829,534.237732 238.923706,525.217346 
	C279.010620,459.157837 319.228638,393.177917 359.464203,327.208801 
	C360.241547,325.934296 361.737122,325.097839 363.259521,324.641846 
M350.018829,486.680511 
	C351.262299,487.151367 352.491791,487.663757 353.751343,488.086700 
	C366.613434,492.405609 380.766083,488.485840 389.543457,478.188721 
	C398.263611,467.958862 399.901062,453.298584 393.665680,441.282532 
	C387.432587,429.270844 374.621368,422.429230 360.974548,423.824341 
	C346.605286,425.293304 334.836182,435.684509 331.979797,449.424438 
	C328.790771,464.764282 335.220398,478.372650 350.018829,486.680511 
M497.282318,208.207504 
	C504.292603,211.861481 511.302887,215.515457 518.313171,219.169418 
	C518.657593,218.898117 519.001953,218.626816 519.346375,218.355499 
	C518.917725,216.944611 518.688416,215.431747 518.027649,214.139511 
	C514.095398,206.449158 510.328369,198.653534 505.947174,191.222641 
	C503.912750,187.772049 504.481781,185.236023 506.172607,182.134338 
	C510.304871,174.553955 514.247925,166.869888 518.218201,159.202225 
	C518.893738,157.897614 519.326477,156.467285 519.871399,155.095032 
	C519.511414,154.763412 519.151428,154.431778 518.791443,154.100143 
	C517.394226,154.730179 515.963135,155.295074 514.605347,156.000946 
	C506.795868,160.060745 498.870789,163.925430 491.270020,168.346375 
	C488.153839,170.158875 485.914276,169.749557 483.082642,168.189835 
	C475.664612,164.103928 468.143738,160.202362 460.615967,156.320190 
	C459.145935,155.562073 457.459991,155.222687 455.873596,154.690170 
	C455.586273,155.023468 455.298920,155.356750 455.011566,155.690033 
	C455.680023,157.102448 456.302124,158.539062 457.024597,159.923264 
	C461.020111,167.578491 464.850006,175.329971 469.144287,182.814621 
	C470.885498,185.849442 470.646881,188.127640 469.055847,190.993713 
	C464.945862,198.397461 461.053375,205.923706 457.181702,213.456375 
	C456.457428,214.865479 456.233398,216.531662 455.778503,218.079224 
	C463.890259,215.204453 471.293457,212.112411 477.857880,207.756378 
	C484.533142,203.326813 490.391052,202.827286 497.282318,208.207504 
M502.399750,288.883362 
	C505.183655,286.975342 507.967590,285.067291 510.751495,283.159271 
	C510.626404,282.710114 510.501282,282.260986 510.376190,281.811829 
	C506.138031,281.811829 501.893707,281.668518 497.663452,281.851593 
	C493.305267,282.040161 490.129974,280.800812 487.989105,276.617340 
	C486.061859,272.851105 483.383942,269.469055 481.037079,265.917542 
	C480.512329,266.029388 479.987549,266.141235 479.462799,266.253082 
	C479.462799,270.778839 479.325409,275.310059 479.504852,279.828674 
	C479.657532,283.672913 478.436951,286.320221 474.870117,288.246216 
	C471.015320,290.327728 467.512634,293.061371 463.856354,295.510590 
	C463.965179,296.012482 464.074005,296.514404 464.182800,297.016296 
	C468.712982,297.016296 473.251221,297.182709 477.770721,296.962769 
	C481.280792,296.791962 483.636841,297.821320 485.444824,301.051147 
	C487.754883,305.177917 490.652618,308.975708 493.297089,312.915283 
	C493.816284,312.796631 494.335480,312.677979 494.854675,312.559326 
	C494.854675,309.141235 495.221619,305.674408 494.775177,302.315643 
	C493.951782,296.121124 495.905823,291.714203 502.399750,288.883362 
M395.477936,188.224472 
	C399.367249,185.638168 403.256592,183.051880 407.145905,180.465576 
	C406.992340,179.972702 406.838776,179.479813 406.685242,178.986923 
	C402.621521,178.986923 398.529175,178.687042 394.502136,179.071274 
	C390.475769,179.455414 388.075073,177.956970 386.162384,174.524765 
	C384.232391,171.061462 381.771881,167.893799 379.543762,164.596603 
	C379.029175,164.774460 378.514587,164.952316 378.000000,165.130173 
	C378.000000,169.532761 377.789490,173.948883 378.071320,178.333359 
	C378.271149,181.441864 377.008423,183.156387 374.473602,184.659439 
	C370.780426,186.849411 367.294708,189.389267 363.720520,191.779953 
	C363.906677,192.248047 364.092834,192.716125 364.278992,193.184219 
	C368.697052,193.184219 373.145721,192.881042 377.519104,193.322937 
	C379.460175,193.519058 381.772736,194.797745 383.002594,196.322388 
	C385.918610,199.937469 388.288361,203.993195 390.878906,207.870819 
	C391.427063,207.710876 391.975189,207.550919 392.523346,207.390976 
	C392.523346,202.656372 392.334839,197.909897 392.631531,193.193954 
	C392.727875,191.662354 394.093475,190.210617 395.477936,188.224472 
z"/>
<path fill="#343434" opacity="1.000000" stroke="none" 
	d="
M337.725403,269.882050 
	C343.967072,254.569550 355.641327,247.922577 369.264893,251.928009 
	C375.835205,253.859741 380.480316,258.085754 383.994598,263.870697 
	C409.976349,306.639862 436.012512,349.375977 462.031158,392.122742 
	C484.419098,428.904572 506.835815,465.668915 529.176392,502.479462 
	C535.927856,513.604004 533.720581,527.087280 524.097168,534.893188 
	C514.747803,542.476868 501.035950,542.231567 492.061371,533.949463 
	C489.431305,531.522339 487.390961,528.337463 485.503632,525.241760 
	C445.260345,459.234802 405.077759,393.190796 364.880005,327.156036 
	C364.361725,326.304657 363.800629,325.479340 363.018311,324.011810 
	C357.020660,314.054657 351.482605,304.583160 345.441193,295.444427 
	C340.263306,287.611816 336.532227,279.543182 337.725403,269.882050 
z"/>
<path fill="#BCBCBC" opacity="1.000000" stroke="none" 
	d="
M337.399292,269.958710 
	C336.532227,279.543182 340.263306,287.611816 345.441193,295.444427 
	C351.482605,304.583160 357.020660,314.054657 362.837372,323.719391 
	C361.737122,325.097839 360.241547,325.934296 359.464203,327.208801 
	C319.228638,393.177917 279.010620,459.157837 238.923706,525.217346 
	C233.449829,534.237732 226.615082,540.258057 215.408401,540.135010 
	C196.676437,539.929260 184.912079,519.888000 194.536804,503.713287 
	C209.779724,478.097198 225.401627,452.706360 240.902222,427.243988 
	C272.336304,375.608185 303.795105,323.987427 335.258362,272.369415 
	C335.768005,271.533295 336.464111,270.810852 337.399292,269.958710 
z"/>
<path fill="#343434" opacity="1.000000" stroke="none" 
	d="
M349.702393,486.472595 
	C335.220398,478.372650 328.790771,464.764282 331.979797,449.424438 
	C334.836182,435.684509 346.605286,425.293304 360.974548,423.824341 
	C374.621368,422.429230 387.432587,429.270844 393.665680,441.282532 
	C399.901062,453.298584 398.263611,467.958862 389.543457,478.188721 
	C380.766083,488.485840 366.613434,492.405609 353.751343,488.086700 
	C352.491791,487.663757 351.262299,487.151367 349.702393,486.472595 
z"/>
<path fill="#363636" opacity="1.000000" stroke="none" 
	d="
M496.951050,208.042755 
	C490.391052,202.827286 484.533142,203.326813 477.857880,207.756378 
	C471.293457,212.112411 463.890259,215.204453 455.778503,218.079224 
	C456.233398,216.531662 456.457428,214.865479 457.181702,213.456375 
	C461.053375,205.923706 464.945862,198.397461 469.055847,190.993713 
	C470.646881,188.127640 470.885498,185.849442 469.144287,182.814621 
	C464.850006,175.329971 461.020111,167.578491 457.024597,159.923264 
	C456.302124,158.539062 455.680023,157.102448 455.011566,155.690033 
	C455.298920,155.356750 455.586273,155.023468 455.873596,154.690170 
	C457.459991,155.222687 459.145935,155.562073 460.615967,156.320190 
	C468.143738,160.202362 475.664612,164.103928 483.082642,168.189835 
	C485.914276,169.749557 488.153839,170.158875 491.270020,168.346375 
	C498.870789,163.925430 506.795868,160.060745 514.605347,156.000946 
	C515.963135,155.295074 517.394226,154.730179 518.791443,154.100143 
	C519.151428,154.431778 519.511414,154.763412 519.871399,155.095032 
	C519.326477,156.467285 518.893738,157.897614 518.218201,159.202225 
	C514.247925,166.869888 510.304871,174.553955 506.172607,182.134338 
	C504.481781,185.236023 503.912750,187.772049 505.947174,191.222641 
	C510.328369,198.653534 514.095398,206.449158 518.027649,214.139511 
	C518.688416,215.431747 518.917725,216.944611 519.346375,218.355499 
	C519.001953,218.626816 518.657593,218.898117 518.313171,219.169418 
	C511.302887,215.515457 504.292603,211.861481 496.951050,208.042755 
z"/>
<path fill="#3A3A3A" opacity="1.000000" stroke="none" 
	d="
M502.085510,289.065308 
	C495.905823,291.714203 493.951782,296.121124 494.775177,302.315643 
	C495.221619,305.674408 494.854675,309.141235 494.854675,312.559326 
	C494.335480,312.677979 493.816284,312.796631 493.297089,312.915283 
	C490.652618,308.975708 487.754883,305.177917 485.444824,301.051147 
	C483.636841,297.821320 481.280792,296.791962 477.770721,296.962769 
	C473.251221,297.182709 468.712982,297.016296 464.182800,297.016296 
	C464.074005,296.514404 463.965179,296.012482 463.856354,295.510590 
	C467.512634,293.061371 471.015320,290.327728 474.870117,288.246216 
	C478.436951,286.320221 479.657532,283.672913 479.504852,279.828674 
	C479.325409,275.310059 479.462799,270.778839 479.462799,266.253082 
	C479.987549,266.141235 480.512329,266.029388 481.037079,265.917542 
	C483.383942,269.469055 486.061859,272.851105 487.989105,276.617340 
	C490.129974,280.800812 493.305267,282.040161 497.663452,281.851593 
	C501.893707,281.668518 506.138031,281.811829 510.376190,281.811829 
	C510.501282,282.260986 510.626404,282.710114 510.751495,283.159271 
	C507.967590,285.067291 505.183655,286.975342 502.085510,289.065308 
z"/>
<path fill="#393939" opacity="1.000000" stroke="none" 
	d="
M395.178223,188.473404 
	C394.093475,190.210617 392.727875,191.662354 392.631531,193.193954 
	C392.334839,197.909897 392.523346,202.656372 392.523346,207.390976 
	C391.975189,207.550919 391.427063,207.710876 390.878906,207.870819 
	C388.288361,203.993195 385.918610,199.937469 383.002594,196.322388 
	C381.772736,194.797745 379.460175,193.519058 377.519104,193.322937 
	C373.145721,192.881042 368.697052,193.184219 364.278992,193.184219 
	C364.092834,192.716125 363.906677,192.248047 363.720520,191.779953 
	C367.294708,189.389267 370.780426,186.849411 374.473602,184.659439 
	C377.008423,183.156387 378.271149,181.441864 378.071320,178.333359 
	C377.789490,173.948883 378.000000,169.532761 378.000000,165.130173 
	C378.514587,164.952316 379.029175,164.774460 379.543762,164.596603 
	C381.771881,167.893799 384.232391,171.061462 386.162384,174.524765 
	C388.075073,177.956970 390.475769,179.455414 394.502136,179.071274 
	C398.529175,178.687042 402.621521,178.986923 406.685242,178.986923 
	C406.838776,179.479813 406.992340,179.972702 407.145905,180.465576 
	C403.256592,183.051880 399.367249,185.638168 395.178223,188.473404 
z"/>
</svg>